<svg width="101" height="32" viewBox="0 0 101 32" fill="none" xmlns="http://www.w3.org/2000/svg">
<path d="M6.4 27.2C9.93462 27.2 12.8 24.3346 12.8 20.8C12.8 17.2654 9.93462 14.4 6.4 14.4C2.86538 14.4 0 17.2654 0 20.8C0 24.3346 2.86538 27.2 6.4 27.2Z" fill="#6E56E0"/>
<path d="M21.6 32C23.8091 32 25.6 30.2091 25.6 28C25.6 25.7909 23.8091 24 21.6 24C19.3909 24 17.6 25.7909 17.6 28C17.6 30.2091 19.3909 32 21.6 32Z" fill="#6E56E0"/>
<path d="M22.4 19.2C27.7019 19.2 32 14.9019 32 9.6C32 4.29807 27.7019 0 22.4 0C17.0981 0 12.8 4.29807 12.8 9.6C12.8 14.9019 17.0981 19.2 22.4 19.2Z" fill="#6E56E0"/>
<path d="M50.6677 8.19563H54.1615V24.5H50.6677V17.5124H44.8913V24.5H41.3975V8.19563H44.8913V14.0186H50.6677V8.19563ZM56.9558 24.5V8.19563L63.594 8.19563C64.4869 8.19563 65.2943 8.42078 66.0164 8.87109C66.7384 9.3214 67.3091 9.927 67.7284 10.6879C68.1554 11.441 68.3689 12.2717 68.3689 13.1801C68.3689 13.8789 68.2524 14.531 68.0195 15.1366C67.7866 15.7345 67.4527 16.2663 67.0179 16.7321C66.5909 17.1902 66.0863 17.559 65.504 17.8385L69.3704 24.5L65.3409 24.5L61.6608 18.1646H60.4496V24.5H56.9558ZM60.4496 14.6708H63.1748C63.4853 14.6708 63.7687 14.5932 64.0249 14.4379C64.2811 14.2748 64.4869 14.0613 64.6422 13.7973C64.7974 13.5334 64.8751 13.2422 64.8751 12.9239C64.8751 12.6056 64.7974 12.3144 64.6422 12.0504C64.4869 11.7865 64.2811 11.5768 64.0249 11.4216C63.7687 11.2585 63.4853 11.177 63.1748 11.177H60.4496V14.6708ZM80.5105 8.19563H84.0043V24.5H80.5105V17.5124H74.7341V24.5H71.2403V8.19563L74.7341 8.19563V14.0186L80.5105 14.0186V8.19563ZM86.7986 24.5V8.19563H93.4369C94.3297 8.19563 95.1372 8.42078 95.8592 8.87109C96.5813 9.3214 97.1519 9.927 97.5712 10.6879C97.9982 11.441 98.2117 12.2717 98.2117 13.1801C98.2117 13.8789 98.0953 14.531 97.8623 15.1366C97.6294 15.7345 97.2956 16.2663 96.8608 16.7321C96.4338 17.1902 95.9291 17.559 95.3468 17.8385L99.2133 24.5H95.1838L91.5036 18.1646H90.2924V24.5H86.7986ZM90.2924 14.6708H93.0176C93.3282 14.6708 93.6115 14.5932 93.8678 14.4379C94.124 14.2748 94.3297 14.0613 94.485 13.7973C94.6403 13.5334 94.7179 13.2422 94.7179 12.9239C94.7179 12.6056 94.6403 12.3144 94.485 12.0504C94.3297 11.7865 94.124 11.5768 93.8678 11.4216C93.6115 11.2585 93.3282 11.177 93.0176 11.177H90.2924V14.6708Z" fill="white"/>
</svg>
